<svg id="Layer_1" data-name="Layer 1" xmlns="http://www.w3.org/2000/svg" width="155.14" height="29.15" viewBox="0 0 155.14 29.15"><defs><style>.cls-1{fill:#fff;}</style></defs><title>PS-logo-w</title><path class="cls-1" d="M14.12,0V27.2l6.16,2V6.34c0-1.07.48-1.79,1.25-1.54,1,0.28,1.2,1.27,1.2,2.33v9.11c3.83,1.85,6.85,0,6.85-4.9s-1.77-7.23-7-9A75.23,75.23,0,0,0,14.12,0"/><path class="cls-1" d="M21.45,25.17l9.89-3.52c1.12-.41,1.29-1,0.38-1.28a6.7,6.7,0,0,0-3.69.19l-6.58,2.32v-3.7l0.38-.13a22.4,22.4,0,0,1,4.59-1,19.63,19.63,0,0,1,8.53,1c2.91,0.92,3.23,2.27,2.5,3.21a7.21,7.21,0,0,1-2.55,1.6L21.45,28.74V25.17Z"/><path class="cls-1" d="M2.83,24.8c-3-.83-3.47-2.59-2.11-3.6a14.54,14.54,0,0,1,3.39-1.62l8.82-3.14V20L6.58,22.29c-1.12.4-1.29,1-.39,1.26a6.5,6.5,0,0,0,3.68-.19l3-1.1v3.19l-0.62.1a19.82,19.82,0,0,1-9.48-.76"/><path class="cls-1" d="M35.48,29.1a1.44,1.44,0,0,0,1-2.46,1.41,1.41,0,0,0-1-.42,1.44,1.44,0,0,0-1,2.46,1.46,1.46,0,0,0,1,.42m-1.2-1.44a1.19,1.19,0,0,1,.35-0.85,1.21,1.21,0,0,1,.85-0.35,1.17,1.17,0,0,1,.84.35,1.2,1.2,0,0,1-.84,2,1.22,1.22,0,0,1-.85-0.35,1.19,1.19,0,0,1-.35-0.84"/><path class="cls-1" d="M36.19,28.33a0.09,0.09,0,0,1-.05-0.07,1,1,0,0,1,0-.12v-0.2a0.3,0.3,0,0,0-.06-0.21A0.26,0.26,0,0,0,36,27.64l0.12-.12a0.47,0.47,0,0,0,.06-0.24,0.39,0.39,0,0,0-.24-0.39,0.72,0.72,0,0,0-.3-0.06H34.86v1.61h0.28V27.78h0.43a0.58,0.58,0,0,1,.18,0,0.21,0.21,0,0,1,.09.18v0.38a0.16,0.16,0,0,0,0,.06v0H36.2V28.34h0Zm-0.32-1a0.2,0.2,0,0,1-.07.18,0.37,0.37,0,0,1-.21.05H35.15V27.08h0.47a0.39,0.39,0,0,1,.15,0,0.2,0.2,0,0,1,.1.19"/><path class="cls-1" d="M56.79,8.4h-6.4a0,0,0,0,0,0,0v15a0,0,0,0,0,0,0H53a0,0,0,0,0,0,0V10.07a0,0,0,0,1,0,0h3c1.08,0,1.68,1.09,1.68,3.07s-0.6,3.07-1.68,3.07H54.23a0,0,0,0,0,0,0v1.55a0,0,0,0,0,0,0h2.56a3.26,3.26,0,0,0,2.42-1.14,5.24,5.24,0,0,0,1.16-3.56c0-2.87-1.4-4.72-3.58-4.72"/><path class="cls-1" d="M64.61,8.4H62a0,0,0,0,0,0,0v15a0,0,0,0,0,0,0h2.59a0,0,0,0,0,0,0v-15a0,0,0,0,0,0,0"/><path class="cls-1" d="M75.93,12a0,0,0,0,0,0,0H71.25c-4.14,0-4.67,3.05-4.67,5.72V20c0,2,1.24,3.43,2.94,3.43H72a0,0,0,0,0,0,0V21.86a0,0,0,0,0,0,0h-1.8c-0.42,0-1-.19-1-1.61v-2.5a7.3,7.3,0,0,1,.5-3.32,1.52,1.52,0,0,1,1.49-.76h2a0,0,0,0,1,0,0v9.75a0,0,0,0,0,0,0h2.59a0,0,0,0,0,0,0V12Z"/><path class="cls-1" d="M94.59,14.66l-1.28-.1c-1-.08-1.67-0.61-1.67-2.19,0-1.84.83-2.33,1.92-2.33H97.1a0,0,0,0,0,0,0V8.44a0,0,0,0,0,0,0H93.2c-2.41,0-4.13,1.42-4.13,4.25v0.12a3.71,3.71,0,0,0,3.42,4l1.28,0.1c1,0.07,1.56.94,1.56,2.26v0.37c0,0.83-.2,2.33-2,2.33H89.69a0,0,0,0,0,0,0v1.55a0,0,0,0,0,0,0h4.56c1.41,0,3.76-.57,3.76-4.4a5.09,5.09,0,0,0-1-3.26,3.3,3.3,0,0,0-2.46-1.13"/><path class="cls-1" d="M115.85,12a0,0,0,0,0,0,0h-4.63C107,12,106.5,15,106.5,17.71V20c0,2,1.24,3.43,2.94,3.43H112a0,0,0,0,0,0,0V21.86a0,0,0,0,0,0,0h-1.8c-0.42,0-1-.19-1-1.61v-2.5a7.35,7.35,0,0,1,.5-3.32,1.51,1.51,0,0,1,1.48-.76h2a0,0,0,0,1,0,0v9.75a0,0,0,0,0,0,0h2.59a0,0,0,0,0,0,0V12Z"/><path class="cls-1" d="M105.42,12h-2.8l0,0h0V10.09a0,0,0,0,0,0,0H100a0,0,0,0,0,0,0V20c0,2,1.24,3.43,2.94,3.43h1.86a0,0,0,0,0,0,0V21.86a0,0,0,0,0,0,0h-1.14c-0.29,0-1,0-1-1.48V13.65h2.82a0,0,0,0,0,0,0V12a0,0,0,0,0,0,0"/><path class="cls-1" d="M123.53,12h-2.81v0h0V10.09a0,0,0,0,0,0,0h-2.59a0,0,0,0,0,0,0V20c0,2,1.24,3.43,2.94,3.43h1.86a0,0,0,0,0,0,0V21.86a0,0,0,0,0,0,0h-1.14c-0.29,0-1,0-1-1.48V13.65h2.82a0,0,0,0,0,0,0V12a0,0,0,0,0,0,0"/><path class="cls-1" d="M127.82,12h-2.59a0,0,0,0,0,0,0V23.41a0,0,0,0,0,0,0h2.59a0,0,0,0,0,0,0V12a0,0,0,0,0,0,0"/><path class="cls-1" d="M127.82,8.4h-2.59a0,0,0,0,0,0,0v2.17a0,0,0,0,0,0,0h2.59a0,0,0,0,0,0,0V8.44a0,0,0,0,0,0,0"/><path class="cls-1" d="M145.75,12h-4.63a0,0,0,0,0,0,0V23.41a0,0,0,0,0,0,0h2.59a0,0,0,0,0,0,0V13.65l0,0h2a1.56,1.56,0,0,1,1.49.7,6.4,6.4,0,0,1,.49,3.08c0,0.07,0,6,0,6a0,0,0,0,0,0,0h2.59a0,0,0,0,0,0,0v-5.7c0-2.67-.53-5.72-4.67-5.72"/><path class="cls-1" d="M134.48,12c-4.33,0-4.88,3.06-4.88,5.73s0.55,5.74,4.88,5.74,4.89-3.07,4.89-5.74S138.81,12,134.48,12m1.65,9.07a2.16,2.16,0,0,1-3.29,0,6.79,6.79,0,0,1-.55-3.33h0c0-2,.24-3.1.79-3.63a2.42,2.42,0,0,1,2.81,0c0.55,0.54.79,1.66,0.79,3.64a6.83,6.83,0,0,1-.54,3.33"/><path class="cls-1" d="M77.39,12a0,0,0,0,0,0,0L81.2,23.3a0.18,0.18,0,0,1,0,.09L79,29a0,0,0,0,0,0,0h2.26a0.07,0.07,0,0,0,.06,0L88.15,12a0,0,0,0,0,0,0H85.66a0.08,0.08,0,0,0-.06,0l-2.86,7.41s0,0,0,0L80.17,12a0.07,0.07,0,0,0-.06,0H77.39Z"/><path class="cls-1" d="M153.7,23.45a1.43,1.43,0,1,0-1-.42,1.45,1.45,0,0,0,1,.42M152.5,22a1.19,1.19,0,0,1,.35-0.85,1.22,1.22,0,0,1,.85-0.35,1.17,1.17,0,0,1,.84.35,1.2,1.2,0,0,1-.84,2,1.22,1.22,0,0,1-.85-0.35A1.18,1.18,0,0,1,152.5,22"/><path class="cls-1" d="M154.41,22.68a0.1,0.1,0,0,1,0-.07,0.62,0.62,0,0,1,0-.12v-0.2a0.32,0.32,0,0,0-.06-0.21,0.27,0.27,0,0,0-.09-0.08,0.76,0.76,0,0,0,.12-0.13,0.45,0.45,0,0,0,.06-0.24,0.4,0.4,0,0,0-.24-0.4,0.73,0.73,0,0,0-.3-0.06h-0.75v1.61h0.28V22.13h0.43a0.56,0.56,0,0,1,.18,0,0.2,0.2,0,0,1,.09.18v0.25c0,0.06,0,.1,0,0.13l0,0.06v0h0.31V22.69h0Zm-0.32-1a0.2,0.2,0,0,1-.07.18,0.36,0.36,0,0,1-.21.05h-0.44V21.43h0.47a0.42,0.42,0,0,1,.15,0,0.19,0.19,0,0,1,.1.19"/></svg>